<mxfile host="app.diagrams.net" agent="Mozilla/5.0 (Windows NT 10.0; Win64; x64) AppleWebKit/537.36 (KHTML, like Gecko) Chrome/136.0.0.0 Safari/537.36 Edg/136.0.0.0" version="27.0.8" pages="2">
  <diagram name="Use Case Diagram" id="EJZUdxGDGvXU_gFydGGj">
    <mxGraphModel dx="1260" dy="1455" grid="1" gridSize="10" guides="1" tooltips="1" connect="1" arrows="1" fold="1" page="1" pageScale="1" pageWidth="850" pageHeight="1100" math="0" shadow="0">
      <root>
        <mxCell id="0" />
        <mxCell id="1" parent="0" />
        <mxCell id="nZ_yDwgrxe8MuYgTQbtF-1" style="edgeStyle=orthogonalEdgeStyle;rounded=0;orthogonalLoop=1;jettySize=auto;html=1;exitX=1;exitY=0.3333333333333333;exitDx=0;exitDy=0;exitPerimeter=0;entryX=0;entryY=0.5;entryDx=0;entryDy=0;sketch=1;curveFitting=1;jiggle=2;fillColor=#e1d5e7;strokeColor=#9673a6;curved=1;" edge="1" parent="1" source="nZ_yDwgrxe8MuYgTQbtF-2" target="nZ_yDwgrxe8MuYgTQbtF-14">
          <mxGeometry relative="1" as="geometry" />
        </mxCell>
        <mxCell id="nZ_yDwgrxe8MuYgTQbtF-2" value="" style="shape=umlActor;verticalLabelPosition=bottom;verticalAlign=top;html=1;outlineConnect=0;fillColor=#e1d5e7;strokeColor=#9673a6;sketch=1;curveFitting=1;jiggle=2;dashed=1;dashPattern=12 12;" vertex="1" parent="1">
          <mxGeometry x="150" y="290" width="110" height="200" as="geometry" />
        </mxCell>
        <mxCell id="nZ_yDwgrxe8MuYgTQbtF-3" style="edgeStyle=orthogonalEdgeStyle;rounded=0;orthogonalLoop=1;jettySize=auto;html=1;exitX=1;exitY=0.3333333333333333;exitDx=0;exitDy=0;exitPerimeter=0;entryX=0.058;entryY=0.624;entryDx=0;entryDy=0;entryPerimeter=0;sketch=1;jiggle=2;curveFitting=1;strokeColor=#9673a6;align=center;verticalAlign=middle;fontFamily=Helvetica;fontSize=11;fontColor=default;labelBackgroundColor=default;endArrow=classic;curved=1;fillColor=#e1d5e7;" edge="1" parent="1" source="nZ_yDwgrxe8MuYgTQbtF-2" target="nZ_yDwgrxe8MuYgTQbtF-11">
          <mxGeometry relative="1" as="geometry" />
        </mxCell>
        <mxCell id="nZ_yDwgrxe8MuYgTQbtF-4" value="" style="endArrow=classic;endSize=12;dashed=1;html=1;rounded=0;exitX=1;exitY=0.5;exitDx=0;exitDy=0;sketch=1;jiggle=2;curveFitting=1;strokeColor=#9673a6;align=center;verticalAlign=middle;fontFamily=Helvetica;fontSize=11;fontColor=default;labelBackgroundColor=default;edgeStyle=orthogonalEdgeStyle;curved=1;fillColor=#e1d5e7;" edge="1" parent="1" source="nZ_yDwgrxe8MuYgTQbtF-49">
          <mxGeometry width="160" relative="1" as="geometry">
            <mxPoint x="340" y="610" as="sourcePoint" />
            <mxPoint x="640" y="1078" as="targetPoint" />
          </mxGeometry>
        </mxCell>
        <mxCell id="nZ_yDwgrxe8MuYgTQbtF-5" value="Use Case Diagram" style="text;html=1;align=center;verticalAlign=middle;whiteSpace=wrap;rounded=1;fillColor=#e1d5e7;strokeColor=#9673a6;sketch=1;curveFitting=1;jiggle=2;fontSize=20;fontFamily=Courier New;labelBorderColor=none;textShadow=0;fontStyle=1" vertex="1" parent="1">
          <mxGeometry x="265" y="70" width="320" height="90" as="geometry" />
        </mxCell>
        <mxCell id="nZ_yDwgrxe8MuYgTQbtF-6" value=":" style="text;html=1;align=center;verticalAlign=middle;whiteSpace=wrap;rounded=0;fontFamily=Courier New;fontStyle=1;fontColor=#000099;fontSize=30;rotation=90;" vertex="1" parent="1">
          <mxGeometry x="175" y="295" width="60" height="30" as="geometry" />
        </mxCell>
        <mxCell id="nZ_yDwgrxe8MuYgTQbtF-7" value=")" style="text;html=1;align=center;verticalAlign=middle;whiteSpace=wrap;rounded=0;fontFamily=Courier New;fontStyle=1;fontColor=#000099;fontSize=30;rotation=90;" vertex="1" parent="1">
          <mxGeometry x="175" y="310" width="60" height="30" as="geometry" />
        </mxCell>
        <mxCell id="nZ_yDwgrxe8MuYgTQbtF-28" style="edgeStyle=orthogonalEdgeStyle;rounded=0;orthogonalLoop=1;jettySize=auto;html=1;exitX=1;exitY=0.3333333333333333;exitDx=0;exitDy=0;exitPerimeter=0;entryX=0.001;entryY=0.592;entryDx=0;entryDy=0;entryPerimeter=0;sketch=1;jiggle=2;curveFitting=1;strokeColor=#9673a6;align=center;verticalAlign=middle;fontFamily=Helvetica;fontSize=11;fontColor=default;labelBackgroundColor=default;endArrow=classic;curved=1;fillColor=#e1d5e7;" edge="1" parent="1" source="nZ_yDwgrxe8MuYgTQbtF-2" target="nZ_yDwgrxe8MuYgTQbtF-26">
          <mxGeometry relative="1" as="geometry">
            <mxPoint x="270" y="367" as="sourcePoint" />
            <mxPoint x="358" y="549" as="targetPoint" />
          </mxGeometry>
        </mxCell>
        <mxCell id="nZ_yDwgrxe8MuYgTQbtF-40" value="" style="group" vertex="1" connectable="0" parent="1">
          <mxGeometry x="337.9971428571429" y="820.0048648648649" width="119.90857142857143" height="95.13513513513514" as="geometry" />
        </mxCell>
        <mxCell id="nZ_yDwgrxe8MuYgTQbtF-41" value="" style="ellipse;whiteSpace=wrap;html=1;rounded=0;sketch=1;jiggle=2;curveFitting=1;strokeColor=#9673a6;align=center;verticalAlign=middle;fontFamily=Helvetica;fontSize=11;fontColor=default;labelBackgroundColor=default;fillColor=#e1d5e7;" vertex="1" parent="nZ_yDwgrxe8MuYgTQbtF-40">
          <mxGeometry width="119.90857142857143" height="95.13513513513516" as="geometry" />
        </mxCell>
        <mxCell id="nZ_yDwgrxe8MuYgTQbtF-42" value="Delete Product" style="text;html=1;align=center;verticalAlign=middle;whiteSpace=wrap;rounded=0;fontFamily=Courier New;fontStyle=1;fontColor=#000099;fontSize=14;" vertex="1" parent="nZ_yDwgrxe8MuYgTQbtF-40">
          <mxGeometry x="29.97714285714286" y="29.72972972972973" width="59.95428571428572" height="35.67567567567568" as="geometry" />
        </mxCell>
        <mxCell id="nZ_yDwgrxe8MuYgTQbtF-44" value="" style="group" vertex="1" connectable="0" parent="1">
          <mxGeometry x="338" y="170" width="122" height="640" as="geometry" />
        </mxCell>
        <mxCell id="nZ_yDwgrxe8MuYgTQbtF-10" value="" style="group" vertex="1" connectable="0" parent="nZ_yDwgrxe8MuYgTQbtF-44">
          <mxGeometry y="216.21621621621625" width="122" height="82.16216216216216" as="geometry" />
        </mxCell>
        <mxCell id="nZ_yDwgrxe8MuYgTQbtF-11" value="" style="ellipse;whiteSpace=wrap;html=1;rounded=0;sketch=1;jiggle=2;curveFitting=1;strokeColor=#9673a6;align=center;verticalAlign=middle;fontFamily=Helvetica;fontSize=11;fontColor=default;labelBackgroundColor=default;fillColor=#e1d5e7;" vertex="1" parent="nZ_yDwgrxe8MuYgTQbtF-10">
          <mxGeometry width="122" height="82.16216216216216" as="geometry" />
        </mxCell>
        <mxCell id="nZ_yDwgrxe8MuYgTQbtF-12" value="Delete Client" style="text;html=1;align=center;verticalAlign=middle;whiteSpace=wrap;rounded=0;fontFamily=Courier New;fontStyle=1;fontColor=#000099;fontSize=14;" vertex="1" parent="nZ_yDwgrxe8MuYgTQbtF-10">
          <mxGeometry x="30.5" y="25.675675675675674" width="61" height="30.810810810810807" as="geometry" />
        </mxCell>
        <mxCell id="nZ_yDwgrxe8MuYgTQbtF-13" value="" style="group" vertex="1" connectable="0" parent="nZ_yDwgrxe8MuYgTQbtF-44">
          <mxGeometry x="0.6971428571428646" width="119.90857142857143" height="95.13513513513514" as="geometry" />
        </mxCell>
        <mxCell id="nZ_yDwgrxe8MuYgTQbtF-14" value="" style="ellipse;whiteSpace=wrap;html=1;rounded=0;sketch=1;jiggle=2;curveFitting=1;strokeColor=#9673a6;align=center;verticalAlign=middle;fontFamily=Helvetica;fontSize=11;fontColor=default;labelBackgroundColor=default;fillColor=#e1d5e7;" vertex="1" parent="nZ_yDwgrxe8MuYgTQbtF-13">
          <mxGeometry width="119.90857142857143" height="95.13513513513516" as="geometry" />
        </mxCell>
        <mxCell id="nZ_yDwgrxe8MuYgTQbtF-15" value="Add Client" style="text;html=1;align=center;verticalAlign=middle;whiteSpace=wrap;rounded=0;fontFamily=Courier New;fontStyle=1;fontColor=#000099;fontSize=14;" vertex="1" parent="nZ_yDwgrxe8MuYgTQbtF-13">
          <mxGeometry x="29.97714285714286" y="29.72972972972973" width="59.95428571428572" height="35.67567567567568" as="geometry" />
        </mxCell>
        <mxCell id="nZ_yDwgrxe8MuYgTQbtF-25" value="" style="group" vertex="1" connectable="0" parent="nZ_yDwgrxe8MuYgTQbtF-44">
          <mxGeometry y="328.64864864864865" width="122" height="82.16216216216216" as="geometry" />
        </mxCell>
        <mxCell id="nZ_yDwgrxe8MuYgTQbtF-26" value="" style="ellipse;whiteSpace=wrap;html=1;rounded=0;sketch=1;jiggle=2;curveFitting=1;strokeColor=#9673a6;align=center;verticalAlign=middle;fontFamily=Helvetica;fontSize=11;fontColor=default;labelBackgroundColor=default;fillColor=#e1d5e7;" vertex="1" parent="nZ_yDwgrxe8MuYgTQbtF-25">
          <mxGeometry width="122" height="82.16216216216216" as="geometry" />
        </mxCell>
        <mxCell id="nZ_yDwgrxe8MuYgTQbtF-27" value="View Clients" style="text;html=1;align=center;verticalAlign=middle;whiteSpace=wrap;rounded=0;fontFamily=Courier New;fontStyle=1;fontColor=#000099;fontSize=14;" vertex="1" parent="nZ_yDwgrxe8MuYgTQbtF-25">
          <mxGeometry x="30.5" y="25.675675675675674" width="61" height="30.810810810810807" as="geometry" />
        </mxCell>
        <mxCell id="nZ_yDwgrxe8MuYgTQbtF-29" value="" style="group" vertex="1" connectable="0" parent="nZ_yDwgrxe8MuYgTQbtF-44">
          <mxGeometry y="103.7837837837838" width="119.90857142857143" height="95.13513513513514" as="geometry" />
        </mxCell>
        <mxCell id="nZ_yDwgrxe8MuYgTQbtF-30" value="" style="ellipse;whiteSpace=wrap;html=1;rounded=0;sketch=1;jiggle=2;curveFitting=1;strokeColor=#9673a6;align=center;verticalAlign=middle;fontFamily=Helvetica;fontSize=11;fontColor=default;labelBackgroundColor=default;fillColor=#e1d5e7;" vertex="1" parent="nZ_yDwgrxe8MuYgTQbtF-29">
          <mxGeometry width="119.90857142857143" height="95.13513513513516" as="geometry" />
        </mxCell>
        <mxCell id="nZ_yDwgrxe8MuYgTQbtF-31" value="Edit Client" style="text;html=1;align=center;verticalAlign=middle;whiteSpace=wrap;rounded=0;fontFamily=Courier New;fontStyle=1;fontColor=#000099;fontSize=14;" vertex="1" parent="nZ_yDwgrxe8MuYgTQbtF-29">
          <mxGeometry x="29.97714285714286" y="29.72972972972973" width="59.95428571428572" height="35.67567567567568" as="geometry" />
        </mxCell>
        <mxCell id="nZ_yDwgrxe8MuYgTQbtF-33" value="" style="group" vertex="1" connectable="0" parent="nZ_yDwgrxe8MuYgTQbtF-44">
          <mxGeometry x="0.6971428571428646" y="432.4324324324325" width="119.90857142857143" height="95.13513513513514" as="geometry" />
        </mxCell>
        <mxCell id="nZ_yDwgrxe8MuYgTQbtF-34" value="" style="ellipse;whiteSpace=wrap;html=1;rounded=0;sketch=1;jiggle=2;curveFitting=1;strokeColor=#9673a6;align=center;verticalAlign=middle;fontFamily=Helvetica;fontSize=11;fontColor=default;labelBackgroundColor=default;fillColor=#e1d5e7;" vertex="1" parent="nZ_yDwgrxe8MuYgTQbtF-33">
          <mxGeometry width="119.90857142857143" height="95.13513513513516" as="geometry" />
        </mxCell>
        <mxCell id="nZ_yDwgrxe8MuYgTQbtF-35" value="Add Product" style="text;html=1;align=center;verticalAlign=middle;whiteSpace=wrap;rounded=0;fontFamily=Courier New;fontStyle=1;fontColor=#000099;fontSize=14;" vertex="1" parent="nZ_yDwgrxe8MuYgTQbtF-33">
          <mxGeometry x="29.97714285714286" y="29.72972972972973" width="59.95428571428572" height="35.67567567567568" as="geometry" />
        </mxCell>
        <mxCell id="nZ_yDwgrxe8MuYgTQbtF-36" value="" style="group" vertex="1" connectable="0" parent="nZ_yDwgrxe8MuYgTQbtF-44">
          <mxGeometry x="0.6971428571428646" y="544.8648648648649" width="119.90857142857143" height="95.13513513513514" as="geometry" />
        </mxCell>
        <mxCell id="nZ_yDwgrxe8MuYgTQbtF-37" value="" style="ellipse;whiteSpace=wrap;html=1;rounded=0;sketch=1;jiggle=2;curveFitting=1;strokeColor=#9673a6;align=center;verticalAlign=middle;fontFamily=Helvetica;fontSize=11;fontColor=default;labelBackgroundColor=default;fillColor=#e1d5e7;" vertex="1" parent="nZ_yDwgrxe8MuYgTQbtF-36">
          <mxGeometry width="119.90857142857143" height="95.13513513513516" as="geometry" />
        </mxCell>
        <mxCell id="nZ_yDwgrxe8MuYgTQbtF-38" value="Edit Product" style="text;html=1;align=center;verticalAlign=middle;whiteSpace=wrap;rounded=0;fontFamily=Courier New;fontStyle=1;fontColor=#000099;fontSize=14;" vertex="1" parent="nZ_yDwgrxe8MuYgTQbtF-36">
          <mxGeometry x="29.97714285714286" y="29.72972972972973" width="59.95428571428572" height="35.67567567567568" as="geometry" />
        </mxCell>
        <mxCell id="nZ_yDwgrxe8MuYgTQbtF-45" value="" style="group" vertex="1" connectable="0" parent="1">
          <mxGeometry x="339.9971428571429" y="920.0048648648649" width="119.90857142857143" height="95.13513513513514" as="geometry" />
        </mxCell>
        <mxCell id="nZ_yDwgrxe8MuYgTQbtF-46" value="" style="ellipse;whiteSpace=wrap;html=1;rounded=0;sketch=1;jiggle=2;curveFitting=1;strokeColor=#9673a6;align=center;verticalAlign=middle;fontFamily=Helvetica;fontSize=11;fontColor=default;labelBackgroundColor=default;fillColor=#e1d5e7;" vertex="1" parent="nZ_yDwgrxe8MuYgTQbtF-45">
          <mxGeometry width="119.90857142857143" height="95.13513513513516" as="geometry" />
        </mxCell>
        <mxCell id="nZ_yDwgrxe8MuYgTQbtF-47" value="View Product" style="text;html=1;align=center;verticalAlign=middle;whiteSpace=wrap;rounded=0;fontFamily=Courier New;fontStyle=1;fontColor=#000099;fontSize=14;" vertex="1" parent="nZ_yDwgrxe8MuYgTQbtF-45">
          <mxGeometry x="29.97714285714286" y="29.72972972972973" width="59.95428571428572" height="35.67567567567568" as="geometry" />
        </mxCell>
        <mxCell id="nZ_yDwgrxe8MuYgTQbtF-48" value="" style="group" vertex="1" connectable="0" parent="1">
          <mxGeometry x="339.9971428571429" y="1030.0048648648649" width="119.90857142857143" height="95.13513513513514" as="geometry" />
        </mxCell>
        <mxCell id="nZ_yDwgrxe8MuYgTQbtF-49" value="" style="ellipse;whiteSpace=wrap;html=1;rounded=0;sketch=1;jiggle=2;curveFitting=1;strokeColor=#9673a6;align=center;verticalAlign=middle;fontFamily=Helvetica;fontSize=11;fontColor=default;labelBackgroundColor=default;fillColor=#e1d5e7;" vertex="1" parent="nZ_yDwgrxe8MuYgTQbtF-48">
          <mxGeometry width="119.90857142857143" height="95.13513513513516" as="geometry" />
        </mxCell>
        <mxCell id="nZ_yDwgrxe8MuYgTQbtF-50" value="Place Order" style="text;html=1;align=center;verticalAlign=middle;whiteSpace=wrap;rounded=0;fontFamily=Courier New;fontStyle=1;fontColor=#000099;fontSize=14;" vertex="1" parent="nZ_yDwgrxe8MuYgTQbtF-48">
          <mxGeometry x="29.97714285714286" y="29.72972972972973" width="59.95428571428572" height="35.67567567567568" as="geometry" />
        </mxCell>
        <mxCell id="nZ_yDwgrxe8MuYgTQbtF-51" value="" style="group" vertex="1" connectable="0" parent="1">
          <mxGeometry x="639.9971428571429" y="1030.0048648648649" width="119.90857142857143" height="95.13513513513514" as="geometry" />
        </mxCell>
        <mxCell id="nZ_yDwgrxe8MuYgTQbtF-52" value="" style="ellipse;whiteSpace=wrap;html=1;rounded=0;sketch=1;jiggle=2;curveFitting=1;strokeColor=#9673a6;align=center;verticalAlign=middle;fontFamily=Helvetica;fontSize=11;fontColor=default;labelBackgroundColor=default;fillColor=#e1d5e7;" vertex="1" parent="nZ_yDwgrxe8MuYgTQbtF-51">
          <mxGeometry width="119.90857142857143" height="95.13513513513516" as="geometry" />
        </mxCell>
        <mxCell id="nZ_yDwgrxe8MuYgTQbtF-53" value="Generate Bill" style="text;html=1;align=center;verticalAlign=middle;whiteSpace=wrap;rounded=0;fontFamily=Courier New;fontStyle=1;fontColor=#000099;fontSize=14;" vertex="1" parent="nZ_yDwgrxe8MuYgTQbtF-51">
          <mxGeometry x="29.97714285714286" y="29.72972972972973" width="59.95428571428572" height="35.67567567567568" as="geometry" />
        </mxCell>
      </root>
    </mxGraphModel>
  </diagram>
  <diagram id="gCAghJUprH3DT0VtmHOT" name="Package Diagram">
    <mxGraphModel dx="775" dy="895" grid="1" gridSize="10" guides="1" tooltips="1" connect="1" arrows="1" fold="1" page="1" pageScale="1" pageWidth="850" pageHeight="1100" math="0" shadow="0">
      <root>
        <mxCell id="0" />
        <mxCell id="1" parent="0" />
        <mxCell id="Mc1TRGLiCeujNbFCNRSC-1" value="Package Diagram" style="text;html=1;align=center;verticalAlign=middle;whiteSpace=wrap;rounded=1;fillColor=#e1d5e7;strokeColor=#9673a6;sketch=1;curveFitting=1;jiggle=2;fontSize=20;fontFamily=Courier New;labelBorderColor=none;textShadow=0;fontStyle=1" vertex="1" parent="1">
          <mxGeometry x="695" y="30" width="320" height="90" as="geometry" />
        </mxCell>
        <mxCell id="Mc1TRGLiCeujNbFCNRSC-2" value="Controllers" style="shape=folder;fontStyle=1;tabWidth=80;tabHeight=30;tabPosition=left;html=1;boundedLbl=1;whiteSpace=wrap;fontFamily=Courier New;fontSize=15;labelBackgroundColor=none;sketch=1;curveFitting=1;jiggle=2;fillColor=#e1d5e7;strokeColor=#9673a6;align=center;verticalAlign=middle;fontColor=#000099;" vertex="1" parent="1">
          <mxGeometry x="510" y="240" width="240" height="120" as="geometry" />
        </mxCell>
        <mxCell id="Mc1TRGLiCeujNbFCNRSC-3" value="&lt;font style=&quot;font-size: 15px;&quot; face=&quot;Courier New&quot;&gt;BusinessLogicLayer&lt;/font&gt;" style="shape=folder;fontStyle=1;tabWidth=80;tabHeight=30;tabPosition=left;html=1;boundedLbl=1;whiteSpace=wrap;fontFamily=Helvetica;fontSize=11;fontColor=#000099;labelBackgroundColor=none;sketch=1;jiggle=2;curveFitting=1;strokeColor=#9673a6;align=center;verticalAlign=middle;fillColor=#e1d5e7;" vertex="1" parent="1">
          <mxGeometry x="510" y="400" width="240" height="120" as="geometry" />
        </mxCell>
        <mxCell id="Mc1TRGLiCeujNbFCNRSC-4" value="DataAccessObject" style="shape=folder;fontStyle=1;tabWidth=80;tabHeight=30;tabPosition=left;html=1;boundedLbl=1;whiteSpace=wrap;fontFamily=Courier New;fontSize=15;fontColor=#000099;labelBackgroundColor=none;sketch=1;jiggle=2;curveFitting=1;strokeColor=#9673a6;align=center;verticalAlign=middle;fillColor=#e1d5e7;" vertex="1" parent="1">
          <mxGeometry x="510" y="560" width="240" height="120" as="geometry" />
        </mxCell>
        <mxCell id="Mc1TRGLiCeujNbFCNRSC-5" value="Model" style="shape=folder;fontStyle=1;tabWidth=80;tabHeight=30;tabPosition=left;html=1;boundedLbl=1;whiteSpace=wrap;fontFamily=Courier New;fontSize=15;fontColor=#000099;labelBackgroundColor=none;sketch=1;jiggle=2;curveFitting=1;strokeColor=#9673a6;align=center;verticalAlign=middle;fillColor=#e1d5e7;" vertex="1" parent="1">
          <mxGeometry x="950" y="400" width="240" height="120" as="geometry" />
        </mxCell>
        <mxCell id="Mc1TRGLiCeujNbFCNRSC-6" value="" style="endArrow=open;endSize=12;dashed=1;html=1;rounded=0;sketch=1;jiggle=2;curveFitting=1;strokeColor=#9673a6;align=center;verticalAlign=middle;fontFamily=Helvetica;fontSize=11;fontColor=default;labelBackgroundColor=default;edgeStyle=orthogonalEdgeStyle;curved=1;fillColor=#e1d5e7;exitX=0.5;exitY=1;exitDx=0;exitDy=0;exitPerimeter=0;entryX=0.504;entryY=0.262;entryDx=0;entryDy=0;entryPerimeter=0;" edge="1" parent="1" source="Mc1TRGLiCeujNbFCNRSC-2" target="Mc1TRGLiCeujNbFCNRSC-3">
          <mxGeometry width="160" relative="1" as="geometry">
            <mxPoint x="740" y="640" as="sourcePoint" />
            <mxPoint x="900" y="640" as="targetPoint" />
          </mxGeometry>
        </mxCell>
        <mxCell id="Mc1TRGLiCeujNbFCNRSC-7" value="" style="endArrow=open;endSize=12;dashed=1;html=1;rounded=0;sketch=1;jiggle=2;curveFitting=1;strokeColor=#9673a6;align=center;verticalAlign=middle;fontFamily=Helvetica;fontSize=11;fontColor=default;labelBackgroundColor=default;edgeStyle=orthogonalEdgeStyle;curved=1;fillColor=#e1d5e7;exitX=0.5;exitY=1;exitDx=0;exitDy=0;exitPerimeter=0;entryX=0.513;entryY=0.263;entryDx=0;entryDy=0;entryPerimeter=0;" edge="1" parent="1" source="Mc1TRGLiCeujNbFCNRSC-3" target="Mc1TRGLiCeujNbFCNRSC-4">
          <mxGeometry width="160" relative="1" as="geometry">
            <mxPoint x="640" y="370" as="sourcePoint" />
            <mxPoint x="641" y="441" as="targetPoint" />
          </mxGeometry>
        </mxCell>
        <mxCell id="Mc1TRGLiCeujNbFCNRSC-9" value="" style="endArrow=open;endSize=12;dashed=1;html=1;rounded=0;sketch=1;jiggle=2;curveFitting=1;strokeColor=#9673a6;align=center;verticalAlign=middle;fontFamily=Helvetica;fontSize=11;fontColor=default;labelBackgroundColor=default;edgeStyle=orthogonalEdgeStyle;curved=1;fillColor=#e1d5e7;exitX=0;exitY=0;exitDx=240;exitDy=75;exitPerimeter=0;entryX=0;entryY=0;entryDx=0;entryDy=75;entryPerimeter=0;" edge="1" parent="1" source="Mc1TRGLiCeujNbFCNRSC-3" target="Mc1TRGLiCeujNbFCNRSC-5">
          <mxGeometry width="160" relative="1" as="geometry">
            <mxPoint x="758" y="319" as="sourcePoint" />
            <mxPoint x="960" y="485" as="targetPoint" />
          </mxGeometry>
        </mxCell>
        <mxCell id="Mc1TRGLiCeujNbFCNRSC-10" value="" style="endArrow=open;endSize=12;dashed=1;html=1;rounded=0;sketch=1;jiggle=2;curveFitting=1;strokeColor=#9673a6;align=center;verticalAlign=middle;fontFamily=Helvetica;fontSize=11;fontColor=default;labelBackgroundColor=default;edgeStyle=orthogonalEdgeStyle;curved=1;fillColor=#e1d5e7;exitX=1.01;exitY=0.699;exitDx=0;exitDy=0;exitPerimeter=0;entryX=0;entryY=0;entryDx=0;entryDy=75;entryPerimeter=0;" edge="1" parent="1" source="Mc1TRGLiCeujNbFCNRSC-4" target="Mc1TRGLiCeujNbFCNRSC-5">
          <mxGeometry width="160" relative="1" as="geometry">
            <mxPoint x="760" y="485" as="sourcePoint" />
            <mxPoint x="940" y="480" as="targetPoint" />
          </mxGeometry>
        </mxCell>
        <mxCell id="Mc1TRGLiCeujNbFCNRSC-11" value="Validators" style="shape=folder;fontStyle=1;tabWidth=70;tabHeight=10;tabPosition=left;html=1;boundedLbl=1;whiteSpace=wrap;fontFamily=Courier New;fontSize=15;labelBackgroundColor=none;sketch=1;curveFitting=1;jiggle=2;fillColor=#e1d5e7;strokeColor=#9673a6;align=center;verticalAlign=middle;fontColor=#000099;" vertex="1" parent="1">
          <mxGeometry x="510" y="480" width="120" height="40" as="geometry" />
        </mxCell>
        <mxCell id="Mc1TRGLiCeujNbFCNRSC-12" value="Connection" style="shape=folder;fontStyle=1;tabWidth=80;tabHeight=30;tabPosition=left;html=1;boundedLbl=1;whiteSpace=wrap;fontFamily=Courier New;fontSize=15;fontColor=#000099;labelBackgroundColor=none;sketch=1;jiggle=2;curveFitting=1;strokeColor=#9673a6;align=center;verticalAlign=middle;fillColor=#e1d5e7;" vertex="1" parent="1">
          <mxGeometry x="510" y="720" width="240" height="120" as="geometry" />
        </mxCell>
        <mxCell id="Mc1TRGLiCeujNbFCNRSC-14" value="" style="endArrow=open;endSize=12;dashed=1;html=1;rounded=0;sketch=1;jiggle=2;curveFitting=1;strokeColor=#9673a6;align=center;verticalAlign=middle;fontFamily=Helvetica;fontSize=11;fontColor=default;labelBackgroundColor=default;edgeStyle=orthogonalEdgeStyle;curved=1;fillColor=#e1d5e7;exitX=0.5;exitY=1;exitDx=0;exitDy=0;exitPerimeter=0;entryX=0.502;entryY=0.283;entryDx=0;entryDy=0;entryPerimeter=0;" edge="1" parent="1" source="Mc1TRGLiCeujNbFCNRSC-4" target="Mc1TRGLiCeujNbFCNRSC-12">
          <mxGeometry width="160" relative="1" as="geometry">
            <mxPoint x="660" y="720" as="sourcePoint" />
            <mxPoint x="661" y="791" as="targetPoint" />
          </mxGeometry>
        </mxCell>
      </root>
    </mxGraphModel>
  </diagram>
</mxfile>
